<?xml version="1.0" encoding="UTF-8" standalone="no"?>
<svg width="1083px" height="571px" viewBox="0 0 1083 571" version="1.1" xmlns="http://www.w3.org/2000/svg" xmlns:xlink="http://www.w3.org/1999/xlink" xmlns:sketch="http://www.bohemiancoding.com/sketch/ns">
    <!-- Generator: Sketch 3.3.3 (12072) - http://www.bohemiancoding.com/sketch -->
    <title>Slice 1</title>
    <desc>Created with Sketch.</desc>
    <defs></defs>
    <g id="Page-1" stroke="none" stroke-width="1" fill="none" fill-rule="evenodd" sketch:type="MSPage">
        <g id="cisco" sketch:type="MSLayerGroup" fill="#FFFFFF">
            <g id="Page-1" sketch:type="MSShapeGroup">
                <path d="M286.1,0.1 C288.8,1.2 291.7,2.1 294.3,3.6 C303,8.6 306,16.7 306.1,26.2 L306.1,112.9 L306.1,270.6 C306.1,277.4 304.7,283.8 299.9,289.1 C293.3,296.3 283.2,298.7 274.1,295.2 C265.2,291.8 259.1,283 259.1,273.2 L259.1,77.1 L259.1,26.2 C259.1,12.7 264.5,5.2 277.2,0.7 C277.6,0.6 278,0.2 278.3,0 C280.8,0.1 283.4,0.1 286.1,0.1 L286.1,0.1 L286.1,0.1 Z" id="Shape"></path>
                <path d="M804.6,0.1 C805.8,0.6 806.9,1.2 808.1,1.6 C817.5,4.9 823.8,13.4 823.8,23.4 L823.8,273.7 C823.8,286.2 813.5,296.7 801.2,296.9 C788.5,297.2 778.2,287.8 777.4,275.2 C777.3,273.2 777.2,271.1 777.2,269.1 C777.2,189.4 777.4,109.7 777,30 C776.9,15 781.6,4.5 796.7,0.2 C799.4,0.1 802,0.1 804.6,0.1 L804.6,0.1 L804.6,0.1 Z" id="Shape"></path>
                <path d="M786.5,473.2 C786.6,427.8 816.8,387.8 864,378.4 C897,371.8 927.4,378.3 953.2,400.9 C972.1,417.5 982.2,438.8 984.7,463.9 C989.5,512.7 958.8,558.4 908.1,568.3 C870,575.8 836.3,566.6 809.9,536.9 C796.7,522.1 789.5,504.4 787.5,484.6 C787.1,480.8 786.8,477 786.5,473.2 L786.5,473.2 L786.5,473.2 Z M836.8,473.3 C836.8,501.4 858.1,523 885.9,523 C913.7,523 935.3,501.4 935.3,473.5 C935.3,445.6 913.8,423.8 886.1,423.8 C858.1,423.8 836.8,445.3 836.8,473.3 L836.8,473.3 L836.8,473.3 Z" id="Shape"></path>
                <path d="M418.3,565.9 L418.3,523 C424.5,524.4 430.5,525.9 436.6,527 C451.8,529.7 467.1,531.3 482.3,527.3 C485.5,526.5 488.6,525 491.3,523.1 C498.7,517.9 499.8,508 492.9,502.2 C488.4,498.4 482.6,495.9 477.1,493.5 C467.2,489.3 456.8,486.5 447.2,481.8 C432.7,474.7 422.2,463.5 418.8,447.1 C412.9,418.5 426,390.5 458,380.4 C470.4,376.5 483.2,375.1 496.1,376.5 C508.5,377.9 520.8,379.6 533.2,381.1 L533.2,421.4 C525.1,419.9 517.1,418.3 509,417.1 C498.7,415.6 488.3,415.4 478.3,419 C473.8,420.6 469.9,423.1 467.9,427.7 C465.5,433.3 467.7,439.9 474.1,443.5 C479.4,446.5 485.3,448.6 491.2,450.6 C502.8,454.5 514.7,457.8 524.7,465.3 C540.6,477.2 547.7,493 546.5,512.8 C544.8,540.8 527.1,558.8 500.3,566.5 C487.2,570.3 473.7,571.6 460,570.5 C453,569.9 446,569.5 439,568.8 C432.2,568 425.3,566.9 418.3,565.9 L418.3,565.9 L418.3,565.9 Z" id="Shape"></path>
                <path d="M240.8,432.1 C233.4,429.7 226.3,426.8 219,425.1 C202.6,421.4 186.5,421.8 171.7,431 C156.8,440.3 149.5,454.1 149,471.6 C148.5,489.5 154.9,504 169.6,514.5 C181.6,523 195.2,524.8 209.5,523.4 C220.4,522.3 230.7,519.2 240.8,514 L240.8,540.2 C240.8,547.3 240.9,554.3 240.7,561.4 C240.7,562.5 239.8,564.2 238.9,564.5 C211,572.6 183.1,574.1 155.7,562.5 C123.7,548.9 104.4,524.9 98.9,490.4 C94.5,463 99.6,437.4 116.2,414.8 C131.2,394.5 151.8,382.8 176.4,378.1 C197,374.2 217.2,376.4 237.2,381.8 C239.7,382.5 240.8,383.5 240.7,386.4 C240.7,401.6 240.8,416.9 240.8,432.1 L240.8,432.1 L240.8,432.1 Z" id="Shape"></path>
                <path d="M736.4,431.8 C727.6,429.2 719.3,425.9 710.6,424.4 C692.1,421.1 674.7,423.4 660,436.5 C651,444.6 646.1,455 644.8,466.8 C643.3,480.5 646,493.5 654.7,504.6 C664.3,516.9 677.4,522.9 692.8,523.7 C707.2,524.5 721,521.5 734,515.2 C734.6,514.9 735.3,514.7 736.4,514.2 L736.4,519.1 C736.4,533.1 736.4,547.1 736.3,561 C736.3,562.2 735.4,564.1 734.5,564.4 C705.7,572.8 677,574 649,561.4 C618.1,547.5 599.7,523.5 594.5,489.9 C590,460.8 596,434.1 614.8,411 C629.6,392.9 649,382.5 671.8,378.1 C692.5,374.1 712.8,376.3 733,381.7 C735.6,382.4 736.5,383.5 736.4,386.3 C736.3,401.7 736.4,417 736.4,431.8 L736.4,431.8 L736.4,431.8 Z" id="Shape"></path>
                <path d="M306.4,379.8 L353.2,379.8 L353.2,567.1 L306.4,567.1 L306.4,379.8 L306.4,379.8 Z" id="Shape"></path>
                <path d="M953.2,169.4 C953.2,188.5 953.3,207.6 953.2,226.7 C953.1,237.3 946.6,245.9 936.6,248.8 C926.4,251.7 915.8,248.1 910.4,239.2 C908.3,235.8 906.8,231.5 906.7,227.5 C906.4,188.7 906.5,149.9 906.6,111 C906.6,99.4 916.8,89.5 928.2,88.9 C943.4,88.1 953,100 953,109.8 C953.1,129.6 953,149.5 953,169.3 C953.1,169.4 953.2,169.4 953.2,169.4 L953.2,169.4 L953.2,169.4 Z" id="Shape"></path>
                <path d="M388.7,169.4 L388.7,112.4 C388.7,100.4 397.5,90.2 408.7,89.2 C421.7,88 432.7,95.9 435,108.2 C435.2,109.5 435.2,110.8 435.2,112.1 L435.2,226.4 C435.2,238.1 426.6,248.3 415.9,249.5 C402.8,251 392.5,244.2 389.4,232 C388.9,230.2 388.8,228.2 388.8,226.4 C388.7,207.4 388.7,188.4 388.7,169.4 L388.7,169.4 L388.7,169.4 Z" id="Shape"></path>
                <path d="M129.8,169.3 C129.8,149.6 129.6,129.9 129.9,110.2 C130.1,99.5 139.4,90.1 149.8,89.2 C162.1,88.1 172.7,95 175.5,106.2 C176,108.3 176.3,110.4 176.3,112.5 L176.3,226.1 C176.3,238 167.8,248.2 156.9,249.5 C144,251 133.4,244.1 130.4,231.9 C129.8,229.4 129.8,226.7 129.8,224.1 C129.7,205.8 129.8,187.5 129.8,169.3 C129.7,169.3 129.7,169.3 129.8,169.3 L129.8,169.3 L129.8,169.3 Z" id="Shape"></path>
                <path d="M694.1,169.4 C694.1,188.2 693.8,206.9 694.2,225.7 C694.4,237.1 686.3,248.2 674.4,249.5 C660.9,251.1 650.7,243.6 647.9,230.5 C647.7,229.3 647.6,228.1 647.6,227 L647.6,111.9 C647.6,99.4 657.8,89.2 670.3,89.1 C683.5,89 693.9,98.8 693.9,111.6 C694.2,130.9 694.1,150.1 694.1,169.4 L694.1,169.4 L694.1,169.4 Z" id="Shape"></path>
                <path d="M46.6,201.9 C46.6,209.9 46.4,217.9 46.6,225.9 C47,238.4 37.6,248.2 27,249.5 C13.2,251.1 2.7,243.3 0.2,230 C0,228.7 0,227.4 0,226.1 L0,177.3 C0,164.9 8.8,155 21.5,153.8 C31.2,152.9 42.5,158.3 46,171.4 C46.6,173.5 46.5,175.9 46.5,178.2 C46.7,186.1 46.6,194 46.6,201.9 L46.6,201.9 L46.6,201.9 Z" id="Shape"></path>
                <path d="M1036.2,201.5 C1036.2,193.5 1036.4,185.5 1036.2,177.5 C1035.9,164.8 1045.8,153.9 1059.6,153.7 C1072.5,153.6 1082.9,164.4 1082.9,177.7 C1082.9,193.9 1083,210.2 1082.9,226.4 C1082.9,237.6 1074.2,248 1063.7,249.5 C1051.1,251.3 1040.3,244.5 1037.1,232.6 C1036.5,230.5 1036.4,228.1 1036.4,225.9 C1036.1,217.7 1036.2,209.6 1036.2,201.5 L1036.2,201.5 L1036.2,201.5 Z" id="Shape"></path>
                <path d="M564.5,202 C564.5,210.2 564.6,218.5 564.5,226.7 C564.4,238.6 555.5,248.7 544.6,249.5 C530.9,250.5 520.6,242.9 518.6,230.1 C518.1,226.6 518,223 518,219.4 C517.9,205.8 518,192.2 518,178.6 C518,165.6 525.3,156.7 538,154.1 C550.2,151.6 563.4,161.3 564.4,173.7 C564.8,178.4 564.6,183.2 564.6,188 C564.5,192.7 564.5,197.4 564.5,202 L564.5,202 L564.5,202 Z" id="Shape"></path>
            </g>
        </g>
    </g>
</svg>